<svg width="190" height="65" viewBox="0 0 190 65" fill="none" xmlns="http://www.w3.org/2000/svg"><g clip-path="url(#clip0_523_2)"><path d="M14.2669 55.8004H12.875V64.4893H14.8918V61.0067H18.0378V59.3185H14.8918V57.602H18.1585V55.8004H14.8918H14.2669Z" fill="#C09733"/><path d="M23.7547 55.8004H21.6172V64.4893H23.7547V55.8004Z" fill="#C09733"/><path d="M26.5879 57.6801H28.974V64.4893H31.0689V57.6801H33.4692V55.8004H26.5879V57.6801Z" fill="#C09733"/><path d="M42.2959 60.6946L36.2881 55.3677V64.4893H38.3049V59.6022L44.3199 64.9291V55.8004H42.2959V60.6946Z" fill="#C09733"/><path d="M49.4124 55.8004H48.0205V64.4893H49.4124H50.0373H53.8011V62.7657H50.0373V60.7655H53.5526V59.0774H50.0373V57.5311H53.8011V55.8004H50.0373H49.4124Z" fill="#C09733"/><path d="M63.0893 60.3115C62.8834 60.0988 62.649 59.9143 62.3863 59.7583C62.1235 59.6022 61.8324 59.4675 61.527 59.354C61.1222 59.2121 60.7742 59.0845 60.4902 58.9568C60.2061 58.8291 59.986 58.6943 59.8297 58.5454C59.6735 58.3964 59.6025 58.2191 59.6025 58.0276C59.6025 57.8361 59.6806 57.68 59.8368 57.5524C59.9931 57.4247 60.2203 57.3609 60.5186 57.3609C60.7387 57.3609 60.9518 57.4034 61.1435 57.4885C61.3353 57.5737 61.5128 57.6942 61.6761 57.8503C61.8395 58.0063 61.9815 58.1836 62.1022 58.3893L63.7072 57.4956C63.558 57.1977 63.345 56.9069 63.0609 56.6161C62.7769 56.3253 62.4218 56.0841 61.9957 55.8926C61.5696 55.7011 61.0654 55.6089 60.4831 55.6089C59.9008 55.6089 59.4108 55.7082 58.9492 55.8997C58.4876 56.0912 58.1254 56.3749 57.8555 56.7509C57.5857 57.1268 57.4508 57.5666 57.4508 58.0773C57.4508 58.5099 57.5289 58.8717 57.6851 59.1767C57.8413 59.4817 58.0402 59.737 58.2816 59.9427C58.5231 60.1555 58.7787 60.3257 59.0486 60.4605C59.3184 60.5953 59.5528 60.6946 59.7658 60.7726C60.1848 60.9286 60.5257 61.0705 60.7813 61.1911C61.037 61.3116 61.2216 61.4464 61.3424 61.5812C61.456 61.7159 61.5199 61.9004 61.5199 62.1203C61.5199 62.3827 61.4205 62.5955 61.2216 62.7444C61.0228 62.9005 60.7671 62.9714 60.4618 62.9714C60.1706 62.9714 59.8937 62.9076 59.638 62.787C59.3753 62.6664 59.1338 62.482 58.9208 62.255C58.7006 62.0209 58.5018 61.7514 58.3313 61.4393L56.8613 62.4962C57.0602 62.9076 57.3371 63.2906 57.6922 63.6381C58.0473 63.9857 58.4663 64.2623 58.9563 64.4609C59.4392 64.6666 59.9647 64.7659 60.5257 64.7659C60.9305 64.7659 61.3282 64.7092 61.7116 64.5886C62.0951 64.468 62.4431 64.2907 62.7413 64.0637C63.0467 63.8297 63.2811 63.5459 63.4657 63.1984C63.6432 62.8579 63.7356 62.4607 63.7356 62.028C63.7356 61.6663 63.6787 61.34 63.558 61.0563C63.4373 60.7726 63.2811 60.5243 63.0822 60.3115H63.0893Z" fill="#C09733"/><path d="M72.726 60.3115C72.5201 60.0988 72.2857 59.9143 72.023 59.7583C71.7602 59.6022 71.4691 59.4675 71.1637 59.354C70.7589 59.2121 70.411 59.0845 70.1269 58.9568C69.8428 58.8291 69.6227 58.6943 69.4665 58.5454C69.3102 58.3964 69.2392 58.2191 69.2392 58.0276C69.2392 57.8361 69.3173 57.68 69.4736 57.5524C69.6298 57.4247 69.857 57.3609 70.1553 57.3609C70.3755 57.3609 70.5885 57.4034 70.7802 57.4885C70.972 57.5737 71.1495 57.6942 71.3128 57.8503C71.4762 58.0063 71.6182 58.1836 71.7389 58.3893L73.3439 57.4956C73.1947 57.1977 72.9817 56.9069 72.6976 56.6161C72.4136 56.3253 72.0585 56.0841 71.6324 55.8926C71.2063 55.7011 70.7021 55.6089 70.1198 55.6089C69.5375 55.6089 69.0475 55.7082 68.5859 55.8997C68.1243 56.0912 67.7621 56.3749 67.4923 56.7509C67.2224 57.1268 67.0875 57.5666 67.0875 58.0773C67.0875 58.5099 67.1656 58.8717 67.3218 59.1767C67.4781 59.4817 67.6769 59.737 67.9183 59.9427C68.1598 60.1555 68.4154 60.3257 68.6853 60.4605C68.9552 60.5953 69.1895 60.6946 69.4026 60.7726C69.8215 60.9286 70.1624 61.0705 70.4181 61.1911C70.6737 61.3116 70.8584 61.4464 70.9791 61.5812C71.0927 61.7159 71.1566 61.9004 71.1566 62.1203C71.1566 62.3827 71.0572 62.5955 70.8584 62.7444C70.6595 62.9005 70.4039 62.9714 70.0985 62.9714C69.8073 62.9714 69.5304 62.9076 69.2747 62.787C69.012 62.6664 68.7705 62.482 68.5575 62.255C68.3373 62.0209 68.1385 61.7514 67.9681 61.4393L66.498 62.4962C66.6969 62.9076 66.9738 63.2906 67.3289 63.6381C67.684 63.9857 68.103 64.2623 68.593 64.4609C69.0759 64.6666 69.6014 64.7659 70.1624 64.7659C70.5672 64.7659 70.9649 64.7092 71.3484 64.5886C71.7318 64.468 72.0798 64.2907 72.3781 64.0637C72.6834 63.8297 72.9178 63.5459 73.1024 63.1984C73.28 62.8579 73.3723 62.4607 73.3723 62.028C73.3723 61.6663 73.3155 61.34 73.1947 61.0563C73.074 60.7726 72.9178 60.5243 72.7189 60.3115H72.726Z" fill="#C09733"/><path d="M89.1806 62.4182C89.5357 62.0139 89.8553 61.6167 90.1251 61.2265L88.8682 60.2548C88.6125 60.6449 88.3427 61.0067 88.0515 61.3471C87.9663 61.4464 87.8811 61.5315 87.7958 61.6237L86.2761 59.9782C86.4821 59.8363 86.6738 59.7086 86.8443 59.5881C87.107 59.4036 87.3343 59.2121 87.5189 59.0277C87.7035 58.8433 87.8385 58.6447 87.9308 58.4319C88.0231 58.2191 88.0657 57.9709 88.0657 57.6801C88.0657 57.3325 87.9734 56.9991 87.7816 56.6799C87.5899 56.3608 87.3058 56.0983 86.9366 55.8926C86.5602 55.6869 86.1057 55.5805 85.5589 55.5805C85.0121 55.5805 84.5363 55.6869 84.1386 55.8926C83.7338 56.0983 83.4284 56.3679 83.2154 56.7012C83.0024 57.0346 82.8887 57.3751 82.8887 57.7297C82.8887 58.0276 82.9455 58.2971 83.0663 58.5383C83.187 58.7795 83.3361 59.0064 83.5279 59.2263C83.6628 59.3895 83.8048 59.5384 83.9397 59.6945C83.7835 59.7583 83.6273 59.8221 83.4639 59.9002C83.1799 60.0349 82.91 60.2052 82.6615 60.4108C82.4129 60.6165 82.207 60.8577 82.0508 61.1414C81.8945 61.4251 81.8164 61.7656 81.8164 62.1628C81.8164 62.6735 81.9513 63.1204 82.2283 63.4892C82.4981 63.8651 82.8674 64.1488 83.329 64.3475C83.7906 64.5461 84.2948 64.6454 84.8487 64.6454C85.4524 64.6454 86.0205 64.539 86.546 64.3333C86.9366 64.1772 87.2987 63.9786 87.6396 63.7516L88.3072 64.4822H90.4589L88.854 62.7515C88.9676 62.638 89.0812 62.5246 89.1877 62.4111L89.1806 62.4182ZM84.9055 57.3254C85.0476 57.1623 85.2606 57.0842 85.5376 57.0842C85.7151 57.0842 85.8571 57.1268 85.9779 57.2048C86.0986 57.2829 86.1909 57.3821 86.2548 57.4956C86.3187 57.6091 86.3542 57.7368 86.3542 57.8716C86.3542 58.0914 86.2335 58.3326 85.985 58.5809C85.8287 58.7369 85.6299 58.8859 85.3884 59.0348C85.2535 58.8788 85.1257 58.7369 85.0121 58.6092C84.7919 58.3539 84.6854 58.1127 84.6854 57.8716C84.6854 57.673 84.7564 57.4956 84.8984 57.3325L84.9055 57.3254ZM86.1483 62.8508C85.8074 62.9998 85.4524 63.0707 85.0973 63.0707C84.8132 63.0707 84.5789 63.0211 84.38 62.9289C84.1883 62.8366 84.0392 62.7019 83.9326 62.5387C83.8261 62.3756 83.7764 62.1912 83.7764 61.9926C83.7764 61.7372 83.8474 61.5244 83.9895 61.3684C84.1315 61.2124 84.309 61.0634 84.5221 60.9499C84.6357 60.8861 84.7706 60.8293 84.8984 60.7655L86.5957 62.6239C86.4466 62.709 86.2974 62.7941 86.1483 62.8579V62.8508Z" fill="#C09733"/><path d="M107.119 60.7584L104.733 55.3677L102.368 60.7584L100.656 55.8004H98.1709L101.935 65L104.733 59.7654L107.538 65L111.302 55.8004H108.809L107.119 60.7584Z" fill="#C09733"/><path d="M115.527 55.8004H114.135V64.4893H115.527H116.152H119.915V62.7657H116.152V60.7655H119.667V59.0774H116.152V57.5311H119.915V55.8004H116.152H115.527Z" fill="#C09733"/><path d="M125.597 55.8004H123.495V64.4893H129.091V62.6948H125.597V55.8004Z" fill="#C09733"/><path d="M134.026 55.8004H131.924V64.4893H137.513V62.6948H134.026V55.8004Z" fill="#C09733"/><path d="M146.347 60.6946L140.347 55.3677V64.4893H142.363V59.6022L148.378 64.9291V55.8004H146.347V60.6946Z" fill="#C09733"/><path d="M153.47 55.8004H152.078V64.4893H153.47H154.095H157.859V62.7657H154.095V60.7655H157.61V59.0774H154.095V57.5311H157.859V55.8004H154.095H153.47Z" fill="#C09733"/><path d="M167.148 60.3115C166.942 60.0988 166.708 59.9143 166.445 59.7583C166.182 59.6022 165.891 59.4675 165.586 59.354C165.181 59.2121 164.833 59.0845 164.549 58.9568C164.265 58.8291 164.045 58.6943 163.888 58.5454C163.732 58.3964 163.661 58.2191 163.661 58.0276C163.661 57.8361 163.739 57.68 163.895 57.5524C164.052 57.4247 164.279 57.3609 164.577 57.3609C164.797 57.3609 165.01 57.4034 165.202 57.4885C165.394 57.5737 165.571 57.6942 165.735 57.8503C165.898 58.0063 166.04 58.1836 166.161 58.3893L167.766 57.4956C167.617 57.1977 167.404 56.9069 167.12 56.6161C166.835 56.3253 166.48 56.0841 166.054 55.8926C165.628 55.7011 165.124 55.6089 164.542 55.6089C163.959 55.6089 163.469 55.7082 163.008 55.8997C162.546 56.0912 162.184 56.3749 161.914 56.7509C161.644 57.1268 161.509 57.5666 161.509 58.0773C161.509 58.5099 161.587 58.8717 161.744 59.1767C161.9 59.4817 162.099 59.737 162.34 59.9427C162.582 60.1555 162.837 60.3257 163.107 60.4605C163.377 60.5953 163.611 60.6946 163.824 60.7726C164.243 60.9286 164.584 61.0705 164.84 61.1911C165.096 61.3116 165.28 61.4464 165.401 61.5812C165.515 61.7159 165.578 61.9004 165.578 62.1203C165.578 62.3827 165.479 62.5955 165.28 62.7444C165.081 62.9005 164.826 62.9714 164.52 62.9714C164.229 62.9714 163.952 62.9076 163.697 62.787C163.434 62.6664 163.192 62.482 162.979 62.255C162.759 62.0209 162.56 61.7514 162.39 61.4393L160.92 62.4962C161.119 62.9076 161.396 63.2906 161.751 63.6381C162.106 63.9857 162.525 64.2623 163.015 64.4609C163.498 64.6666 164.023 64.7659 164.584 64.7659C164.989 64.7659 165.387 64.7092 165.77 64.5886C166.154 64.468 166.502 64.2907 166.8 64.0637C167.105 63.8297 167.34 63.5459 167.524 63.1984C167.702 62.8579 167.794 62.4607 167.794 62.028C167.794 61.6663 167.737 61.34 167.617 61.0563C167.496 60.7726 167.34 60.5243 167.141 60.3115H167.148Z" fill="#C09733"/><path d="M177.26 61.0563C177.147 60.7726 176.983 60.5243 176.785 60.3115C176.586 60.0988 176.344 59.9143 176.082 59.7583C175.819 59.6022 175.528 59.4675 175.222 59.354C174.818 59.2121 174.47 59.0845 174.185 58.9568C173.901 58.8291 173.681 58.6943 173.525 58.5454C173.369 58.3964 173.298 58.2191 173.298 58.0276C173.298 57.8361 173.376 57.68 173.532 57.5524C173.688 57.4247 173.916 57.3609 174.214 57.3609C174.434 57.3609 174.647 57.4034 174.839 57.4885C175.031 57.5737 175.208 57.6942 175.371 57.8503C175.535 58.0063 175.677 58.1836 175.798 58.3893L177.402 57.4956C177.253 57.1977 177.04 56.9069 176.756 56.6161C176.472 56.3253 176.117 56.0841 175.691 55.8926C175.265 55.7011 174.761 55.6089 174.178 55.6089C173.596 55.6089 173.106 55.7082 172.644 55.8997C172.183 56.0912 171.821 56.3749 171.551 56.7509C171.281 57.1268 171.146 57.5666 171.146 58.0773C171.146 58.5099 171.224 58.8717 171.38 59.1767C171.537 59.4817 171.735 59.737 171.977 59.9427C172.218 60.1555 172.474 60.3257 172.744 60.4605C173.014 60.5953 173.248 60.6946 173.461 60.7726C173.88 60.9286 174.221 61.0705 174.477 61.1911C174.732 61.3116 174.917 61.4464 175.038 61.5812C175.151 61.7159 175.215 61.9004 175.215 62.1203C175.215 62.3827 175.116 62.5955 174.917 62.7444C174.718 62.9005 174.462 62.9714 174.157 62.9714C173.866 62.9714 173.589 62.9076 173.333 62.787C173.071 62.6664 172.829 62.482 172.616 62.255C172.396 62.0209 172.197 61.7514 172.027 61.4393L170.557 62.4962C170.755 62.9076 171.032 63.2906 171.388 63.6381C171.743 63.9857 172.162 64.2623 172.652 64.4609C173.134 64.6666 173.66 64.7659 174.221 64.7659C174.626 64.7659 175.023 64.7092 175.407 64.5886C175.79 64.468 176.138 64.2907 176.437 64.0637C176.742 63.8297 176.976 63.5459 177.161 63.1984C177.339 62.8579 177.431 62.4607 177.431 62.028C177.431 61.6663 177.374 61.34 177.253 61.0563H177.26Z" fill="#C09733"/><path d="M25.0966 8.0789C24.0243 6.31984 22.4407 4.96508 20.3528 4.01462C18.2579 3.06416 15.6801 2.58894 12.598 2.58894H0V38.8411H8.76322V26.2582H12.598C15.673 26.2582 18.2579 25.783 20.3528 24.8325C22.4407 23.882 24.0243 22.5202 25.0966 20.7399C26.1689 18.9595 26.7016 16.8671 26.7016 14.4484C26.7016 12.0297 26.1618 9.83795 25.0966 8.0789ZM16.7453 17.8672C15.744 18.6616 14.3592 19.0588 12.598 19.0588H8.76322V9.7883H12.598C14.3592 9.7883 15.744 10.1855 16.7453 10.9799C17.7466 11.7743 18.2508 12.9305 18.2508 14.4484C18.2508 15.9663 17.7466 17.0728 16.7453 17.8672Z" fill="white"/><path d="M61.591 9.7883V2.58894H45.8825H43.2905H37.4814V38.834H43.2905H45.8825H61.591V31.6418H45.8825V23.3004H60.5541V16.2571H45.8825V9.7883H61.591Z" fill="white"/><path d="M154.478 38.834L138.983 19.5695L153.704 2.58894H143.435L131.1 16.8884V2.58894H122.024V38.834H131.1V22.9883L143.854 38.834H154.478Z" fill="white"/><path d="M189.268 24.492C188.785 23.3217 188.118 22.2861 187.273 21.3853C186.428 20.4916 185.448 19.7185 184.347 19.0801C183.239 18.4417 182.046 17.8814 180.768 17.3991C179.071 16.8103 177.629 16.2571 176.436 15.7393C175.243 15.2215 174.327 14.6541 173.688 14.0299C173.048 13.4057 172.729 12.6822 172.729 11.8524C172.729 11.0225 173.056 10.3912 173.716 9.85923C174.369 9.32726 175.321 9.05773 176.571 9.05773C177.501 9.05773 178.375 9.24214 179.191 9.60389C180.001 9.96563 180.746 10.4692 181.421 11.1076C182.096 11.746 182.692 12.4978 183.211 13.3632L189.9 9.63226C189.275 8.39099 188.381 7.1639 187.202 5.9581C186.023 4.75229 184.546 3.75218 182.77 2.95777C180.988 2.16336 178.893 1.76615 176.471 1.76615C174.05 1.76615 171.983 2.17045 170.066 2.98614C168.148 3.79474 166.629 4.97927 165.5 6.53263C164.378 8.08599 163.817 9.93016 163.817 12.0722C163.817 13.8668 164.143 15.3988 164.804 16.6543C165.457 17.9168 166.288 18.9879 167.289 19.8674C168.291 20.7469 169.356 21.4633 170.478 22.0166C171.6 22.5698 172.594 23.0025 173.46 23.3146C175.222 23.9672 176.642 24.5559 177.714 25.0737C178.786 25.5914 179.561 26.1376 180.043 26.705C180.526 27.2725 180.768 28.0243 180.768 28.9606C180.768 30.0671 180.356 30.9395 179.525 31.5779C178.694 32.2163 177.643 32.5355 176.365 32.5355C175.158 32.5355 174.007 32.2801 172.914 31.7552C171.827 31.2375 170.826 30.4927 169.91 29.528C168.994 28.5634 168.17 27.4214 167.445 26.1092L161.331 30.514C162.162 32.2376 163.319 33.8264 164.804 35.2804C166.288 36.7345 168.042 37.8765 170.066 38.7276C172.09 39.5788 174.277 39.9973 176.628 39.9973C178.325 39.9973 179.972 39.749 181.577 39.2454C183.182 38.7418 184.617 38.0112 185.881 37.0466C187.145 36.082 188.146 34.8832 188.892 33.4505C189.638 32.0177 190.007 30.3863 190.007 28.5563C190.007 27.0384 189.765 25.6907 189.282 24.5204L189.268 24.492Z" fill="white"/><path d="M104.1 24.6268L99.9813 16.3422V16.3351L99.96 16.3777L92.468 31.4999H84.5427L95.9193 8.14983L91.8714 0L72.6406 38.8198H79.5078H93.4693H97.1833L99.9955 33.0533L102.793 38.8198H111.145L104.1 24.6268Z" fill="#C09733"/></g><defs><clipPath id="clip0_523_2"><rect width="190" height="65" fill="white"/></clipPath></defs></svg>